<?xml version="1.0" ?><!DOCTYPE svg  PUBLIC '-//W3C//DTD SVG 1.1//EN'  'http://www.w3.org/Graphics/SVG/1.1/DTD/svg11.dtd'><svg enable-background="new 0 0 128 128" id="Слой_1" version="1.1" viewBox="0 0 128 128" xml:space="preserve" xmlns="http://www.w3.org/2000/svg" xmlns:xlink="http://www.w3.org/1999/xlink"><circle cx="64" cy="64" fill="#E3D34C" r="62"/><path d="M50.4,54l2.8,62.5c0.1,4.1-3.2,7.5-7.3,7.5h0c-4.1,0-7.4-3.4-7.3-7.5L41.4,54h-0.6c-5.1,0-9.2-4.4-8.7-9.5  L34.4,4h23l1.8,41C59.3,49.9,55.3,54,50.4,54L50.4,54" fill="#F4EEE6"/><path d="M95.6,124h-3c-5.5,0-10-4.5-10-10v0l3-40c-5.5,0-10-4.5-10-10V24c0-11,9-20,20-20h0V124z" fill="#F4EEE6"/><path d="M34.5,2.5c-0.8,0-1.5,0.6-1.6,1.4l-2,40.1c0,6.9,3.4,11.2,8.9,11.5l-2.7,61c-0.1,2.4,0.8,4.7,2.5,6.4  c1.7,1.7,3.9,2.7,6.3,2.7c2.4,0,4.6-0.9,6.3-2.7c1.7-1.7,2.6-4,2.5-6.4l-2.7-61c5.5-0.3,8.9-4.6,8.9-11.5l-2-40  c0-0.8-0.8-1.5-1.6-1.4c-0.8,0-1.5,0.7-1.4,1.6l2,39.9c0,2.6-0.6,8.5-6.5,8.5c-0.2,0-0.3,0-0.5,0.1c-0.2-0.1-0.4-0.1-0.6-0.1  c-0.8,0-1.5,0.7-1.4,1.6l2.8,62.5c0,1.6-0.5,3.1-1.6,4.2c-1.1,1.1-2.6,1.8-4.2,1.8s-3.1-0.6-4.2-1.8c-1.1-1.1-1.7-2.6-1.6-4.2  l2.8-62.5c0-0.8-0.6-1.5-1.4-1.6c-0.2,0-0.4,0-0.6,0.1c-0.1,0-0.3-0.1-0.5-0.1c-5.9,0-6.5-5.9-6.5-8.4l2-40  C35.9,3.2,35.3,2.5,34.5,2.5z" fill="#62355C"/><path d="M42.9,34V4c0-0.8-0.7-1.5-1.5-1.5S39.9,3.2,39.9,4v30c0,0.8,0.7,1.5,1.5,1.5S42.9,34.8,42.9,34z" fill="#62355C"/><path d="M50.9,34V4c0-0.8-0.7-1.5-1.5-1.5S47.9,3.2,47.9,4v30c0,0.8,0.7,1.5,1.5,1.5S50.9,34.8,50.9,34z" fill="#62355C"/><path d="M81.1,114c0,3.1,1.2,6,3.4,8.1c2.2,2.2,5.1,3.4,8.1,3.4h3c0.8,0,1.5-0.7,1.5-1.5l0-119.8c0-0.1,0-0.1,0-0.2  c0-0.8-0.7-1.5-1.5-1.5h0c-11.9,0-21.5,9.6-21.5,21.5v40c0,5.8,4.3,10.6,9.9,11.4l-2.9,38.5C81.1,113.9,81.1,114,81.1,114z M77.1,64  V24c0-9.7,7.5-17.7,17-18.4l0,116.9h-1.5c-2.3,0-4.4-0.9-6-2.5c-1.6-1.6-2.5-3.7-2.5-6l3-39.9c0-0.4-0.1-0.8-0.4-1.1  c-0.3-0.3-0.7-0.5-1.1-0.5C80.9,72.5,77.1,68.7,77.1,64z" fill="#62355C"/></svg>